<?xml version="1.0" standalone="no"?>
<!DOCTYPE svg PUBLIC "-//W3C//DTD SVG 1.1//EN" "http://www.w3.org/Graphics/SVG/1.1/DTD/svg11.dtd" >
<svg xmlns="http://www.w3.org/2000/svg" xmlns:xlink="http://www.w3.org/1999/xlink" version="1.1">
<metadata>
Created by FontForge 20201107 at Mon Apr 30 12:40:39 2007
 By Unknown
Copyright 1990 as an unpublished work by Bitstream Inc.  All rights reserved.  Confidential.
</metadata>
<defs>
<font id="RondaITCbyBT-Roman" horiz-adv-x="553" >
  <font-face 
    font-family="ITC Ronda"
    font-weight="500"
    font-stretch="normal"
    units-per-em="1000"
    panose-1="0 0 0 0 0 0 0 0 0 0"
    ascent="800"
    descent="-200"
    x-height="470"
    cap-height="711"
    bbox="-167 -270 1186 963"
    underline-thickness="62"
    underline-position="-144"
    stemh="95"
    stemv="95"
    unicode-range="U+0020-FB02"
  />
<missing-glyph horiz-adv-x="405" 
 />
    <glyph glyph-name=".notdef" horiz-adv-x="405" 
 />
    <glyph glyph-name="space" unicode=" " horiz-adv-x="405" 
 />
    <glyph glyph-name="exclam" unicode="!" horiz-adv-x="225" 
d="M46 53c0 37 29 67 66 67s67 -30 67 -67s-30 -67 -67 -67s-66 29 -66 67zM64 166v545h96v-545h-96z" />
    <glyph glyph-name="quotedbl" unicode="&#x22;" horiz-adv-x="300" 
d="M112 701v-271h-68v271h68zM256 701v-271h-68v271h68z" />
    <glyph glyph-name="numbersign" unicode="#" horiz-adv-x="769" 
d="M451 712l-79 -222h125l80 222h80l-78 -222h147l-25 -71h-148l-45 -129h157l-25 -71h-157l-79 -221h-81l79 221h-126l-79 -221h-81l78 221h-151l26 71h151l45 129h-161l25 71h162l79 222h81zM473 419h-127l-45 -129h127z" />
    <glyph glyph-name="dollar" unicode="$" horiz-adv-x="498" 
d="M34 262l96 -36c-3 -19 -5 -33 -5 -43c0 -15 4 -26 14 -36l77 200c-110 40 -166 107 -166 195c0 103 79 183 191 183c34 0 70 -11 108 -30l21 54l72 -22l-118 -308c90 -41 134 -107 134 -200c0 -67 -22 -124 -64 -166s-97 -64 -159 -64c-24 0 -49 3 -74 10l-40 -104
l-72 22l46 121c-47 32 -73 84 -73 141c0 26 4 53 12 83zM253 446l60 154c-28 18 -55 27 -81 27c-44 0 -78 -36 -78 -79c0 -46 32 -76 99 -102zM199 95c12 -2 23 -3 34 -3c73 0 121 48 121 120c0 52 -20 86 -67 110z" />
    <glyph glyph-name="percent" unicode="%" horiz-adv-x="813" 
d="M511 159c0 -55 44 -98 97 -98s96 43 96 98s-43 99 -96 99c-54 0 -97 -44 -97 -99zM160 -14l366 667h-184c24 -29 35 -61 35 -101c0 -96 -76 -172 -172 -172c-95 0 -173 77 -173 172c0 62 33 120 87 150c41 23 94 23 162 23h371l-403 -739h-89zM108 552
c0 -55 44 -99 97 -99s96 44 96 99s-43 98 -96 98c-54 0 -97 -43 -97 -98zM436 159c0 96 76 173 172 173s173 -77 173 -173s-78 -172 -173 -172s-172 77 -172 172z" />
    <glyph glyph-name="ampersand" unicode="&#x26;" horiz-adv-x="718" 
d="M243 419c-46 27 -68 71 -68 131c0 104 75 172 178 172c19 0 42 -4 72 -11v-88c-22 12 -44 19 -65 19c-57 0 -100 -39 -100 -91c0 -60 43 -98 121 -103v-92c-102 0 -166 -61 -166 -141c0 -75 62 -139 142 -139c81 0 145 67 145 146c0 20 -6 41 -17 62
c-55 -22 -83 -54 -90 -102h-91c0 50 23 92 68 130c41 35 96 54 157 82c101 46 151 118 151 216c0 10 0 20 -1 30h85c1 -14 2 -27 2 -41c0 -137 -63 -228 -199 -289c17 -25 24 -51 24 -83c0 -143 -102 -241 -232 -241c-129 0 -232 102 -232 227c0 90 40 157 116 194v12z" />
    <glyph glyph-name="quoteright" unicode="&#x2019;" horiz-adv-x="225" 
d="M111 598c-43 4 -65 24 -65 61s30 66 69 66c37 0 61 -25 61 -64c0 -11 -1 -20 -5 -27l-52 -106h-80l72 63v7z" />
    <glyph glyph-name="parenleft" unicode="(" horiz-adv-x="465" 
d="M447 -161v-109c-254 65 -403 258 -403 503c0 127 45 245 131 340c71 78 158 127 268 152v-102c-188 -58 -298 -208 -298 -388c0 -188 114 -342 302 -396z" />
    <glyph glyph-name="parenright" unicode=")" horiz-adv-x="465" 
d="M43 -161c188 54 302 208 302 396c0 180 -110 330 -298 388v102c110 -25 197 -74 268 -152c86 -95 131 -213 131 -340c0 -245 -149 -438 -403 -503v109z" />
    <glyph glyph-name="asterisk" unicode="*" horiz-adv-x="407" 
d="M144 545l-108 49l38 66l98 -65l-10 116h76l-9 -116l97 65l39 -66l-102 -50l102 -52l-39 -66l-94 65l6 -116h-76l9 115l-97 -64l-38 66z" />
    <glyph glyph-name="plus" unicode="+" horiz-adv-x="833" 
d="M451 596v-264h258v-68h-258v-264h-69v264h-258v68h258v264h69z" />
    <glyph glyph-name="comma" unicode="," horiz-adv-x="277" 
d="M138 -8c-43 4 -65 25 -65 62s30 65 69 65c37 0 61 -24 61 -63c0 -11 -1 -20 -5 -27l-52 -107h-80l72 63v7z" />
    <glyph glyph-name="hyphen" unicode="-" horiz-adv-x="336" 
d="M40 190v91h260v-91h-260z" />
    <glyph glyph-name="period" unicode="." horiz-adv-x="277" 
d="M71 54c0 37 30 68 67 68s68 -31 68 -68c0 -38 -31 -68 -68 -68s-67 30 -67 68z" />
    <glyph glyph-name="slash" unicode="/" horiz-adv-x="279" 
d="M53 -93h-81l237 818h82z" />
    <glyph glyph-name="zero" unicode="0" horiz-adv-x="810" 
d="M39 355c0 97 39 191 108 261c70 70 160 109 259 109c98 0 190 -39 259 -109c69 -69 107 -162 107 -261c0 -100 -38 -193 -107 -262s-162 -108 -259 -108c-98 0 -190 38 -259 108s-108 164 -108 262zM145 355c0 -72 27 -138 76 -188s114 -77 184 -77c68 0 136 28 184 77
c49 49 76 116 76 188c0 71 -27 139 -76 188c-49 50 -115 78 -184 78c-70 0 -135 -27 -184 -78c-49 -50 -76 -118 -76 -188z" />
    <glyph glyph-name="one" unicode="1" horiz-adv-x="334" 
d="M125 0v615h-100v96h206v-711h-106z" />
    <glyph glyph-name="two" unicode="2" 
d="M461 0h-404l257 354c39 53 67 92 67 145c0 72 -50 120 -110 120c-61 0 -112 -44 -125 -117h-98c8 126 103 209 216 209c125 0 217 -91 217 -219c0 -76 -34 -125 -81 -189l-155 -209h216v-94z" />
    <glyph glyph-name="three" unicode="3" 
d="M128 208c7 -78 66 -131 140 -131c76 0 137 62 137 140c0 88 -61 141 -173 141c-10 0 -21 0 -32 -1v88h19c95 0 143 35 143 100c0 54 -41 96 -94 96c-46 0 -80 -25 -92 -69h-92c16 93 90 153 184 153c105 0 187 -79 187 -176c0 -58 -27 -106 -80 -141
c81 -37 129 -105 129 -197c0 -60 -24 -116 -68 -158c-46 -44 -105 -66 -168 -66c-128 0 -230 91 -235 221h95z" />
    <glyph glyph-name="four" unicode="4" 
d="M356 0v125h-281l-55 92l434 508v-509h58v-91h-58v-125h-98zM126 217h230v276z" />
    <glyph glyph-name="five" unicode="5" 
d="M12 223h104c12 -81 80 -138 155 -138c82 0 154 69 154 159c0 102 -64 168 -164 168c-46 0 -87 -15 -128 -46l-66 33l31 312h323v-99h-231l-14 -130c32 15 64 22 100 22c146 0 251 -111 251 -257c0 -63 -26 -131 -74 -181c-50 -53 -115 -81 -189 -81
c-125 0 -230 92 -252 238z" />
    <glyph glyph-name="six" unicode="6" 
d="M200 451c28 15 59 22 93 22c139 0 231 -98 231 -238c0 -66 -25 -129 -72 -176s-110 -72 -176 -72c-143 0 -247 103 -247 248c0 68 24 125 54 190l132 286h106zM276 387c-86 0 -150 -65 -150 -158c0 -86 62 -147 150 -147c90 0 151 62 151 152c0 89 -65 153 -151 153z" />
    <glyph glyph-name="seven" unicode="7" 
d="M107 0l255 613h-283v98h428l-286 -711h-114z" />
    <glyph glyph-name="eight" unicode="8" 
d="M137 217c0 -78 63 -140 141 -140c79 0 140 62 140 140c0 79 -61 141 -140 141c-78 0 -141 -62 -141 -141zM182 545c0 -53 43 -95 95 -95s95 42 95 95c0 54 -42 96 -95 96s-95 -43 -95 -96zM171 408c-48 31 -80 78 -80 141c0 97 82 176 187 176s186 -79 186 -176
c0 -58 -27 -106 -80 -141c81 -37 129 -105 129 -197c0 -60 -24 -116 -68 -158c-45 -43 -104 -66 -167 -66s-123 23 -168 66c-44 42 -68 98 -68 158c0 89 45 159 129 197z" />
    <glyph glyph-name="nine" unicode="9" 
d="M353 260c-28 -15 -59 -22 -93 -22c-139 0 -231 98 -231 238c0 66 25 128 72 175s109 73 175 73c143 0 248 -103 248 -248c0 -68 -24 -126 -54 -191l-133 -285h-106zM276 323c86 0 151 65 151 158c0 86 -63 147 -151 147c-90 0 -150 -62 -150 -152c0 -89 64 -153 150 -153
z" />
    <glyph glyph-name="colon" unicode=":" horiz-adv-x="225" 
d="M48 267c0 36 28 65 64 65s65 -29 65 -65s-29 -65 -65 -65s-64 29 -64 65zM48 51c0 36 28 65 64 65s65 -29 65 -65s-29 -65 -65 -65s-64 29 -64 65z" />
    <glyph glyph-name="semicolon" unicode=";" horiz-adv-x="225" 
d="M112 -8c-43 4 -65 25 -65 62s30 65 69 65c37 0 61 -24 61 -63c0 -11 -1 -20 -5 -27l-52 -107h-80l72 63v7zM48 267c0 36 28 65 64 65s65 -29 65 -65s-29 -65 -65 -65s-64 29 -64 65z" />
    <glyph glyph-name="less" unicode="&#x3c;" horiz-adv-x="833" 
d="M704 491l-473 -193l473 -192v-75l-575 236v63l575 236v-75z" />
    <glyph glyph-name="equal" unicode="=" horiz-adv-x="833" 
d="M709 429v-68h-585v68h585zM709 235v-68h-585v68h585z" />
    <glyph glyph-name="greater" unicode="&#x3e;" horiz-adv-x="833" 
d="M704 330v-63l-575 -236v75l474 192l-474 193v75z" />
    <glyph glyph-name="question" unicode="?" horiz-adv-x="410" 
d="M266 169c-20 -6 -41 -9 -60 -9c-87 0 -144 58 -144 138c0 60 37 111 104 135c81 29 129 38 129 109c0 55 -36 92 -86 92c-37 0 -69 -19 -98 -59l-80 51c50 67 103 99 169 99c109 0 189 -74 189 -182c0 -47 -14 -87 -41 -119c-31 -37 -73 -47 -124 -64
c-45 -15 -67 -34 -67 -64c0 -28 17 -47 41 -47c9 0 20 3 33 8zM139 51c0 37 29 67 66 67s67 -30 67 -67s-30 -67 -67 -67s-66 29 -66 67z" />
    <glyph glyph-name="at" unicode="@" horiz-adv-x="1000" 
d="M581 232l29 115c-11 58 -46 90 -97 90c-90 0 -159 -97 -159 -219c0 -69 33 -107 91 -107c62 0 118 48 136 121zM627 417l28 56h64l-71 -281c-3 -12 -4 -22 -4 -29c0 -30 17 -46 49 -46c30 0 67 17 102 50c51 48 83 123 83 205c0 166 -132 284 -337 284
c-86 0 -159 -18 -223 -56c-124 -74 -196 -200 -196 -346c0 -115 39 -198 124 -263c63 -48 154 -78 256 -78c110 0 217 33 303 93l27 -40c-97 -73 -206 -109 -324 -109c-125 0 -228 31 -307 91c-100 77 -149 178 -149 307c0 107 34 205 99 284c94 115 230 177 394 177
c111 0 209 -33 275 -84c84 -65 129 -152 129 -251c0 -114 -42 -207 -121 -269c-45 -36 -100 -55 -154 -55c-65 0 -98 26 -98 77v9c-36 -58 -83 -85 -147 -85c-99 0 -153 57 -153 162c0 155 103 270 233 270c56 0 95 -25 118 -73z" />
    <glyph glyph-name="A" unicode="A" horiz-adv-x="571" 
d="M210 243h159l-75 224zM554 0h-104l-52 141h-226l-52 -141h-104l278 757z" />
    <glyph glyph-name="B" unicode="B" horiz-adv-x="529" 
d="M174 533v-109h46h14c35 0 64 1 87 15c26 17 45 55 45 94c0 59 -42 103 -102 103c-61 0 -90 -35 -90 -103zM69 0v516c0 132 73 208 198 208c109 0 192 -76 192 -184c0 -67 -25 -114 -74 -145c74 -42 106 -94 106 -173c0 -74 -34 -139 -97 -183c-52 -36 -109 -39 -184 -39
h-141zM226 344h-52v-251c14 -2 31 -3 46 -3c116 0 176 45 176 129c0 98 -58 125 -170 125z" />
    <glyph glyph-name="C" unicode="C" 
d="M535 8c-28 -16 -67 -21 -119 -21c-82 0 -153 20 -213 60c-102 68 -164 184 -164 308c0 97 39 191 108 261c72 73 162 109 271 109c46 0 83 -6 114 -20v-96c-34 18 -68 26 -107 26c-62 0 -118 -17 -163 -51c-74 -55 -117 -138 -117 -229c0 -155 113 -273 274 -273
c44 0 82 9 116 29v-103z" />
    <glyph glyph-name="D" unicode="D" horiz-adv-x="574" 
d="M175 93h17c146 0 249 113 249 262c0 157 -99 262 -251 262h-15v-524zM69 0v711h103c95 0 167 -17 237 -72c85 -66 132 -165 132 -279c0 -116 -43 -212 -126 -285c-75 -65 -148 -75 -243 -75h-103z" />
    <glyph glyph-name="E" unicode="E" horiz-adv-x="462" 
d="M69 0v711h342v-100h-237v-176h222v-97h-222v-236h243v-102h-348z" />
    <glyph glyph-name="F" unicode="F" horiz-adv-x="462" 
d="M69 0v711h342v-98h-237v-178h222v-97h-222v-338h-105z" />
    <glyph glyph-name="G" unicode="G" horiz-adv-x="646" 
d="M591 41c-54 -35 -115 -53 -185 -53c-102 0 -190 36 -259 106c-69 69 -108 163 -108 261c0 97 39 192 108 261c71 72 168 110 284 110c33 0 67 -5 101 -15v-102c-36 17 -69 25 -105 25c-60 0 -117 -18 -167 -53c-72 -51 -115 -135 -115 -226c0 -74 27 -142 76 -193
c52 -55 126 -87 185 -87c20 0 49 6 86 17v261h99v-312z" />
    <glyph glyph-name="H" unicode="H" horiz-adv-x="629" 
d="M70 0v711h105v-263h278v263h105v-711h-105v357h-278v-357h-105z" />
    <glyph glyph-name="I" unicode="I" horiz-adv-x="241" 
d="M69 0v711h105v-711h-105z" />
    <glyph glyph-name="J" unicode="J" horiz-adv-x="354" 
d="M25 0v100h14c126 0 153 65 153 220v391h102v-444c0 -170 -92 -268 -241 -268c-9 0 -18 0 -28 1z" />
    <glyph glyph-name="K" unicode="K" horiz-adv-x="567" 
d="M69 0v711h105v-336l239 336h116l-242 -342l265 -369h-132l-195 282l-51 -73v-209h-105z" />
    <glyph glyph-name="L" unicode="L" horiz-adv-x="407" 
d="M69 0v711h105v-605h223v-106h-328z" />
    <glyph glyph-name="M" unicode="M" horiz-adv-x="775" 
d="M20 0l135 725l243 -498l239 498l117 -725h-110l-56 407l-194 -420l-195 416l-71 -403h-108z" />
    <glyph glyph-name="N" unicode="N" horiz-adv-x="652" 
d="M69 0v725l409 -459v445h105v-728l-409 461v-444h-105z" />
    <glyph glyph-name="O" unicode="O" horiz-adv-x="810" 
d="M145 355c0 -72 27 -139 76 -188c49 -50 115 -77 184 -77c68 0 136 28 184 77c49 49 76 116 76 188c0 71 -27 138 -76 188c-50 51 -115 78 -184 78c-70 0 -134 -27 -184 -78c-49 -50 -76 -117 -76 -188zM39 355c0 97 39 191 108 261c70 71 159 109 259 109
c99 0 190 -39 259 -109c69 -69 107 -163 107 -261c0 -100 -39 -193 -107 -262c-69 -69 -162 -108 -259 -108c-98 0 -190 39 -259 108s-108 164 -108 262z" />
    <glyph glyph-name="P" unicode="P" horiz-adv-x="590" 
d="M69 0v444c0 71 5 128 41 179c46 65 116 100 204 100c65 0 126 -25 172 -71s71 -107 71 -172s-25 -126 -71 -172s-107 -71 -172 -71c-57 0 -103 16 -140 52v-289h-105zM163 480c0 -90 58 -149 147 -149c87 0 149 65 149 149c0 86 -65 154 -143 154
c-89 0 -153 -62 -153 -154z" />
    <glyph glyph-name="Q" unicode="Q" horiz-adv-x="810" 
d="M664 97c-80 -75 -161 -111 -258 -111c-98 0 -190 39 -259 108s-108 163 -108 261c0 97 39 192 108 261c70 70 161 109 259 109c97 0 190 -39 259 -109s107 -163 107 -263c0 -63 -13 -121 -39 -175c31 -42 38 -86 38 -141v-105h-94v74v10c0 22 -1 49 -13 81zM285 116
c42 107 128 167 237 167c47 0 87 -10 125 -33c14 36 21 69 21 102c0 50 -16 103 -48 152c-47 73 -128 116 -215 116c-70 0 -135 -27 -184 -78c-49 -50 -76 -117 -76 -187c0 -98 50 -185 140 -239zM378 88c13 -2 25 -3 37 -3c67 0 129 29 188 87c-28 17 -55 26 -82 26
c-71 0 -123 -39 -143 -110z" />
    <glyph glyph-name="R" unicode="R" 
d="M69 0v488c0 60 2 108 33 151c39 54 104 86 178 86c117 0 211 -94 211 -211c0 -108 -73 -191 -186 -202l235 -312h-133l-233 334v-334h-105zM159 516c0 -71 47 -117 121 -117c65 0 118 52 118 117s-52 117 -118 117c-72 0 -121 -49 -121 -117z" />
    <glyph glyph-name="S" unicode="S" horiz-adv-x="498" 
d="M15 175l97 42c14 -84 55 -126 121 -126c73 0 120 49 120 120c0 76 -41 103 -129 134c-41 14 -80 27 -116 62s-59 89 -59 134c0 103 85 184 185 184c88 0 153 -48 184 -133l-93 -38c-12 45 -45 71 -87 71c-49 0 -85 -34 -85 -78c0 -53 42 -79 115 -107
c127 -50 190 -102 190 -222c0 -136 -99 -231 -222 -231c-111 0 -197 71 -221 188z" />
    <glyph glyph-name="T" unicode="T" horiz-adv-x="486" 
d="M189 0v606h-167v105h442v-105h-164v-606h-111z" />
    <glyph glyph-name="U" unicode="U" horiz-adv-x="632" 
d="M75 261v450h105v-445c0 -124 39 -180 136 -180s136 56 136 180v445h104v-450c0 -76 -4 -133 -44 -186c-45 -58 -111 -89 -194 -89c-87 0 -152 30 -198 89c-38 49 -45 107 -45 186z" />
    <glyph glyph-name="V" unicode="V" horiz-adv-x="572" 
d="M286 -15l-262 726h107l155 -444l155 444h106z" />
    <glyph glyph-name="W" unicode="W" horiz-adv-x="740" 
d="M168 -15l-147 726h104l76 -397l169 411l168 -411l76 397h105l-148 -726l-201 493z" />
    <glyph glyph-name="X" unicode="X" horiz-adv-x="572" 
d="M152 0h-114l190 381l-162 330h115l105 -215l108 215h116l-166 -330l190 -381h-118l-130 263z" />
    <glyph glyph-name="Y" unicode="Y" 
d="M227 0v301l-208 410h115l143 -287l142 287h116l-199 -410v-301h-109z" />
    <glyph glyph-name="Z" unicode="Z" horiz-adv-x="519" 
d="M475 0h-449l308 606h-242v105h414l-311 -607h280v-104z" />
    <glyph glyph-name="bracketleft" unicode="[" horiz-adv-x="338" 
d="M51 -270v981h242v-89h-149v-804h149v-88h-242z" />
    <glyph glyph-name="backslash" unicode="\" horiz-adv-x="279" 
d="M307 -93h-81l-238 818h82z" />
    <glyph glyph-name="bracketright" unicode="]" horiz-adv-x="338" 
d="M293 -270h-242v88h149v804h-149v89h242v-981z" />
    <glyph glyph-name="asciicircum" unicode="^" horiz-adv-x="1000" 
d="M545 712l249 -272h-88l-206 205l-207 -205h-88l249 272h91z" />
    <glyph glyph-name="underscore" unicode="_" horiz-adv-x="500" 
d="M500 -166v-70h-500v70h500z" />
    <glyph glyph-name="quoteleft" unicode="&#x2018;" horiz-adv-x="225" 
d="M104 641c43 -4 65 -25 65 -62s-30 -65 -69 -65c-37 0 -61 24 -61 63c0 11 1 20 5 27l53 107h80l-73 -63v-7z" />
    <glyph glyph-name="a" unicode="a" horiz-adv-x="620" 
d="M283 390c-86 0 -155 -65 -155 -161c0 -86 62 -147 150 -147c92 0 154 61 154 152c0 90 -65 156 -149 156zM488 109c-44 -80 -117 -122 -210 -122c-146 0 -248 104 -248 248c0 138 108 248 256 248c70 0 127 -23 173 -68c40 -40 57 -89 75 -144l91 -272h-100z" />
    <glyph glyph-name="b" unicode="b" horiz-adv-x="574" 
d="M302 388c-86 0 -150 -65 -150 -158c0 -86 62 -147 150 -147c90 0 151 62 151 152c0 89 -65 153 -151 153zM150 418c47 42 100 61 162 61c65 0 120 -22 166 -68c47 -47 72 -109 72 -175s-25 -129 -72 -176s-110 -72 -176 -72c-93 0 -168 39 -205 102
c-32 55 -42 128 -42 226v397h95v-295z" />
    <glyph glyph-name="c" unicode="c" horiz-adv-x="481" 
d="M452 60c-55 -49 -111 -73 -176 -73c-67 0 -128 26 -175 73s-72 109 -72 175s25 128 72 175s109 73 175 73c64 0 121 -24 176 -73l-67 -68c-33 31 -67 45 -109 45c-86 0 -150 -65 -150 -152c0 -93 62 -153 150 -153c43 0 78 14 110 44z" />
    <glyph glyph-name="d" unicode="d" horiz-adv-x="574" 
d="M431 418v295h96v-397c0 -98 -10 -171 -42 -226c-37 -63 -113 -102 -206 -102c-66 0 -128 25 -175 72s-73 110 -73 176s26 128 73 175c46 46 100 68 165 68c62 0 115 -19 162 -61zM426 230c0 93 -65 158 -151 158s-150 -64 -150 -153c0 -90 60 -152 150 -152
c88 0 151 61 151 147z" />
    <glyph glyph-name="e" unicode="e" 
d="M130 279h282c-13 79 -63 123 -136 123c-68 0 -129 -47 -146 -123zM452 60c-55 -49 -111 -73 -176 -73c-67 0 -128 26 -175 73s-72 109 -72 175c0 137 108 248 252 248c140 0 234 -100 234 -265c0 -8 -1 -15 -1 -23h-379c12 -69 65 -113 141 -113c43 0 78 14 110 44z" />
    <glyph glyph-name="f" unicode="f" horiz-adv-x="315" 
d="M93 0v389h-74v81h74c1 149 77 236 208 243v-92c-73 -8 -111 -54 -111 -136v-15h111v-81h-111v-389h-97z" />
    <glyph glyph-name="g" unicode="g" horiz-adv-x="574" 
d="M427 49c-44 -43 -92 -62 -152 -62c-66 0 -128 26 -175 73s-72 109 -72 175c0 138 108 248 253 248c88 0 162 -39 203 -104c31 -49 39 -122 39 -225v-130c0 -170 -102 -270 -268 -270c-91 0 -164 35 -224 106l67 67c53 -55 104 -81 172 -81c100 0 157 62 157 172v31z
M275 82c86 0 151 66 151 159c0 86 -63 146 -151 146c-90 0 -150 -62 -150 -152c0 -89 64 -153 150 -153z" />
    <glyph glyph-name="h" unicode="h" horiz-adv-x="519" 
d="M162 0h-95v713h95v-289c31 30 72 46 120 46c115 0 188 -76 188 -199v-271h-95v241c0 96 -32 144 -108 144c-65 0 -105 -40 -105 -99v-286z" />
    <glyph glyph-name="i" unicode="i" horiz-adv-x="227" 
d="M66 0v469h95v-469h-95zM55 571c0 33 25 59 58 59s59 -26 59 -59s-26 -59 -59 -59s-58 26 -58 59z" />
    <glyph glyph-name="j" unicode="j" horiz-adv-x="227" 
d="M161 -6c0 -140 -87 -228 -234 -240v94c126 24 139 74 139 193v428h95v-475zM55 571c0 33 25 59 58 59s59 -26 59 -59s-26 -59 -59 -59s-58 26 -58 59z" />
    <glyph glyph-name="k" unicode="k" horiz-adv-x="463" 
d="M67 0v713h95v-444l157 201h116l-152 -192c102 -33 152 -119 152 -261v-17h-96c0 8 1 15 1 22c0 129 -60 194 -178 196v-218h-95z" />
    <glyph glyph-name="l" unicode="l" horiz-adv-x="227" 
d="M65 0v713h97v-713h-97z" />
    <glyph glyph-name="m" unicode="m" horiz-adv-x="773" 
d="M627 257c0 93 -29 140 -94 140c-68 0 -98 -46 -98 -140v-257h-95v257c0 94 -28 140 -93 140c-68 0 -94 -46 -94 -140v-257h-95v275c0 131 70 208 181 208c63 0 113 -26 149 -75c40 50 91 75 153 75c119 0 181 -79 181 -235v-248h-95v257z" />
    <glyph glyph-name="n" unicode="n" horiz-adv-x="532" 
d="M153 0h-96v258c0 149 71 225 208 225c138 0 208 -75 208 -225v-258h-96v257c0 86 -40 131 -113 131c-72 0 -111 -45 -111 -131v-257z" />
    <glyph glyph-name="o" unicode="o" 
d="M29 235c0 66 25 128 72 175s109 73 175 73s129 -26 176 -73c47 -46 72 -109 72 -175s-25 -128 -72 -175s-109 -73 -176 -73s-128 26 -175 73s-72 109 -72 175zM276 387c-86 0 -150 -65 -150 -158c0 -86 62 -147 150 -147c90 0 151 63 151 153c0 89 -65 152 -151 152z" />
    <glyph glyph-name="p" unicode="p" horiz-adv-x="574" 
d="M151 241c0 -93 64 -159 150 -159s150 64 150 153c0 90 -60 152 -150 152c-88 0 -150 -60 -150 -146zM149 53v-280h-96v381c0 98 10 171 42 226c37 63 112 103 205 103c66 0 129 -26 176 -73s72 -109 72 -175s-25 -128 -72 -175c-46 -46 -101 -69 -166 -69
c-62 0 -114 20 -161 62z" />
    <glyph glyph-name="q" unicode="q" horiz-adv-x="574" 
d="M433 53c-47 -42 -100 -62 -162 -62c-65 0 -119 23 -165 69c-47 47 -73 109 -73 175s26 128 73 175s109 73 175 73c93 0 169 -40 206 -103c32 -55 42 -128 42 -226v-381h-96v280zM281 82c86 0 150 66 150 159c0 86 -62 146 -150 146c-90 0 -151 -62 -151 -152
c0 -89 65 -153 151 -153z" />
    <glyph glyph-name="r" unicode="r" horiz-adv-x="315" 
d="M67 0v272c0 125 84 204 212 204h14v-96h-12c-77 0 -119 -37 -119 -107v-273h-95z" />
    <glyph glyph-name="s" unicode="s" horiz-adv-x="389" 
d="M6 125l80 40c25 -66 55 -97 104 -97c47 0 77 28 77 69c0 45 -30 63 -89 84c-83 30 -125 69 -125 136c0 72 54 126 134 126c57 0 98 -29 126 -86l-67 -35c-20 36 -36 52 -65 52c-28 0 -49 -22 -49 -49c0 -31 21 -44 62 -58c46 -16 83 -26 107 -45c36 -30 53 -66 53 -115
c0 -94 -67 -160 -170 -160c-86 0 -149 48 -178 138z" />
    <glyph glyph-name="t" unicode="t" horiz-adv-x="315" 
d="M30 387v83h48v111h94v-111h106v-83h-106v-148c0 -92 30 -135 112 -143v-96c-133 2 -206 77 -206 211v176h-48z" />
    <glyph glyph-name="u" unicode="u" horiz-adv-x="532" 
d="M153 470v-257c0 -86 39 -131 111 -131c73 0 113 45 113 131v257h96v-259c0 -58 -2 -104 -37 -149c-40 -52 -95 -74 -171 -74c-140 0 -208 74 -208 223v259h96z" />
    <glyph glyph-name="v" unicode="v" horiz-adv-x="498" 
d="M297 0h-102l-175 470h102l124 -342l129 342h102z" />
    <glyph glyph-name="w" unicode="w" horiz-adv-x="755" 
d="M300 0h-102l-175 470h102l124 -345l105 345h67l85 -345l124 345h102l-175 -470h-102l-68 286z" />
    <glyph glyph-name="x" unicode="x" horiz-adv-x="498" 
d="M25 0l164 261l-133 209h111l77 -120l75 120h112l-130 -209l171 -261h-116l-110 171l-105 -171h-116z" />
    <glyph glyph-name="y" unicode="y" horiz-adv-x="532" 
d="M382 41c-40 -36 -82 -54 -130 -54c-113 0 -193 81 -193 208v275h96v-257c0 -86 40 -131 112 -131c76 0 110 43 110 130v258h96v-396c0 -98 -4 -169 -57 -230c-51 -59 -124 -90 -216 -90c-83 0 -160 40 -214 114l73 60c39 -57 86 -82 154 -82c103 0 169 63 169 171v24z
" />
    <glyph glyph-name="z" unicode="z" horiz-adv-x="407" 
d="M388 0h-373l219 380h-174v90h328l-213 -379h213v-91z" />
    <glyph glyph-name="braceleft" unicode="{" horiz-adv-x="500" 
d="M423 648h-20c-83 0 -99 -26 -99 -112v-118c0 -93 -17 -138 -98 -159c82 -21 98 -66 98 -159v-118c0 -85 15 -112 100 -112h19v-72h-21c-58 0 -101 4 -133 24c-44 27 -49 74 -49 150v120c0 95 -30 132 -117 132c-7 0 -14 -1 -21 -1v73c8 0 15 -1 22 -1
c86 0 116 36 116 131v120c0 76 5 123 49 150c33 20 76 25 136 25h18v-73z" />
    <glyph glyph-name="bar" unicode="|" horiz-adv-x="500" 
d="M287 764v-1000h-73v1000h73z" />
    <glyph glyph-name="braceright" unicode="}" horiz-adv-x="500" 
d="M281 546v-120c0 -95 30 -131 116 -131c7 0 14 1 22 1v-73c-7 0 -15 1 -21 1c-88 0 -117 -37 -117 -132v-120c0 -76 -5 -123 -49 -150c-32 -20 -75 -24 -133 -24h-21v72h19c84 0 100 27 100 113v117c0 93 17 138 98 159c-81 21 -98 66 -98 159v118c0 85 -16 112 -100 112
h-19v73h18c60 0 104 -5 136 -25c44 -27 49 -74 49 -150z" />
    <glyph glyph-name="asciitilde" unicode="~" horiz-adv-x="833" 
d="M747 300c-66 -46 -127 -69 -190 -69c-51 0 -95 18 -141 34c-47 16 -91 32 -141 32c-59 0 -117 -27 -188 -77v76c69 47 131 70 189 70c52 0 97 -14 142 -30c49 -17 93 -36 140 -36c62 0 120 27 189 76v-76z" />
    <glyph glyph-name="exclamdown" unicode="&#xa1;" horiz-adv-x="225" 
d="M160 545v-545h-96v545h96zM179 658c0 -37 -30 -67 -67 -67s-66 30 -66 67s29 67 66 67s67 -29 67 -67z" />
    <glyph glyph-name="cent" unicode="&#xa2;" 
d="M531 306c-30 -98 -97 -157 -191 -174v-132h-83v128c-129 22 -213 126 -213 247c0 127 82 223 213 243v95h83v-95h6c35 0 68 -9 98 -30v-100c-24 26 -52 38 -88 38c-5 0 -10 0 -16 -1v-303c53 12 83 39 97 84h94zM257 222v301c-72 -14 -117 -71 -117 -148
c0 -73 44 -132 117 -153z" />
    <glyph glyph-name="sterling" unicode="&#xa3;" horiz-adv-x="590" 
d="M206 24c-28 -18 -54 -27 -79 -27c-46 0 -77 29 -77 68c0 44 34 75 87 75c6 0 13 0 20 -1c10 23 13 47 13 76c0 51 -7 95 -25 135h-99v85h69c-9 35 -14 64 -14 88c0 125 71 202 184 202c115 0 188 -71 194 -188h-100c-2 62 -35 99 -85 99c-55 0 -97 -44 -97 -109
c0 -27 8 -58 23 -92h130v-85h-103c12 -41 19 -76 19 -106c0 -41 -10 -83 -26 -132c36 -17 67 -25 95 -25c75 0 134 57 134 130c0 5 0 10 -1 15h97v-8c0 -141 -98 -238 -228 -238c-52 0 -95 12 -131 38z" />
    <glyph glyph-name="fraction" unicode="&#x2044;" horiz-adv-x="167" 
d="M333 725l-411 -739h-89l412 739h88z" />
    <glyph glyph-name="yen" unicode="&#xa5;" 
d="M528 711l-99 -204h103v-74h-139l-42 -88h181v-74h-203v-271h-102v271h-203v74h180l-44 88h-136v74h98l-103 204h112l148 -342l149 342h100z" />
    <glyph glyph-name="florin" unicode="&#x192;" 
d="M56 -217l21 89c11 -2 22 -3 29 -3c63 0 88 78 118 244l41 226h-92v97h109c31 201 77 289 193 289c25 0 51 -5 78 -14l-16 -93c-22 11 -40 16 -55 16c-56 0 -86 -65 -105 -198h76v-97h-93l-30 -168c-48 -268 -82 -399 -215 -399c-17 0 -37 4 -59 11z" />
    <glyph glyph-name="section" unicode="&#xa7;" horiz-adv-x="500" 
d="M66 56h99c3 -54 33 -82 84 -82c54 0 86 25 86 67c0 52 -34 69 -87 95l-86 41c-87 42 -129 78 -129 147c0 51 28 89 85 128c-32 32 -48 66 -48 103c0 106 68 170 180 170c105 0 172 -63 172 -164h-99c-8 52 -30 74 -79 74c-45 0 -72 -22 -72 -59c0 -31 20 -49 63 -70
l94 -46c92 -44 139 -86 139 -156c0 -53 -30 -101 -84 -133c35 -29 52 -68 52 -116c0 -98 -75 -169 -192 -169c-108 0 -178 65 -178 166v4zM330 209c27 20 41 46 41 73c0 31 -17 47 -49 64l-144 77c-29 -22 -43 -43 -43 -70c0 -37 24 -60 71 -83z" />
    <glyph glyph-name="currency" unicode="&#xa4;" horiz-adv-x="606" 
d="M179 595c37 28 78 42 124 42c47 0 88 -14 125 -42l100 100l40 -39l-100 -101c27 -36 40 -77 40 -123c0 -45 -12 -86 -40 -123l100 -100l-40 -40l-100 100c-35 -26 -75 -42 -124 -42c-47 0 -88 14 -125 42l-100 -100l-40 40l101 100c-22 28 -41 70 -41 123
c0 46 14 87 41 123l-101 101l40 39zM452 433c0 81 -66 148 -148 148s-148 -67 -148 -148c0 -82 66 -149 148 -149s148 67 148 149z" />
    <glyph glyph-name="quotesingle" unicode="'" horiz-adv-x="155" 
d="M112 701v-271h-68v271h68z" />
    <glyph glyph-name="quotedblleft" unicode="&#x201c;" horiz-adv-x="391" 
d="M104 641c43 -4 65 -25 65 -62s-30 -65 -69 -65c-37 0 -61 24 -61 63c0 11 1 20 5 27l53 107h80l-73 -63v-7zM271 641c43 -4 65 -25 65 -62s-30 -65 -69 -65c-37 0 -61 24 -61 63c0 11 1 20 5 27l52 107h80l-72 -63v-7z" />
    <glyph glyph-name="guillemotleft" unicode="&#xab;" horiz-adv-x="472" 
d="M241 131h-104l-98 101l98 106h104l-100 -106zM430 131h-104l-97 101l97 106h104l-99 -106z" />
    <glyph glyph-name="guilsinglleft" unicode="&#x2039;" horiz-adv-x="280" 
d="M241 131h-104l-98 101l98 106h104l-100 -106z" />
    <glyph glyph-name="guilsinglright" unicode="&#x203a;" horiz-adv-x="280" 
d="M39 131l99 101l-99 106h104l97 -106l-97 -101h-104z" />
    <glyph glyph-name="fi" unicode="&#xfb01;" horiz-adv-x="528" 
d="M353 571c0 33 26 59 59 59s58 -26 58 -59s-25 -59 -58 -59s-59 26 -59 59zM190 389v-389h-97v389h-74v81h74c1 149 77 236 208 243v-92c-73 -8 -111 -54 -111 -136v-15h269v-470h-95v389h-174z" />
    <glyph glyph-name="fl" unicode="&#xfb02;" horiz-adv-x="528" 
d="M93 0v389h-74v81h74c6 176 81 243 250 243h116v-713h-95v621h-62c-70 0 -112 -49 -112 -138v-12h113v-82h-113v-389h-97z" />
    <glyph glyph-name="endash" unicode="&#x2013;" horiz-adv-x="500" 
d="M0 204v62h500v-62h-500z" />
    <glyph glyph-name="dagger" unicode="&#x2020;" horiz-adv-x="500" 
d="M202 -114v548h-173v84h173v193h96v-193h173v-84h-173v-548h-96z" />
    <glyph glyph-name="daggerdbl" unicode="&#x2021;" horiz-adv-x="500" 
d="M202 -114v192h-173v84h173v272h-173v84h173v193h96v-193h173v-84h-173v-272h173v-84h-173v-192h-96z" />
    <glyph glyph-name="periodcentered" unicode="&#xb7;" horiz-adv-x="277" 
d="M71 355c0 37 30 68 67 68s68 -31 68 -68c0 -38 -31 -68 -68 -68s-67 30 -67 68z" />
    <glyph glyph-name="paragraph" unicode="&#xb6;" horiz-adv-x="500" 
d="M468 680h-59v-680h-54v680h-87v-680h-54v382c-113 5 -182 73 -182 170c0 100 74 170 192 170h244v-42z" />
    <glyph glyph-name="bullet" unicode="&#x2022;" horiz-adv-x="590" 
d="M150 372c0 80 65 144 145 144c79 0 144 -64 144 -144c0 -79 -65 -145 -145 -145s-144 65 -144 145z" />
    <glyph glyph-name="quotesinglbase" unicode="&#x201a;" horiz-adv-x="225" 
d="M112 0c-43 4 -65 25 -65 62s30 65 69 65c37 0 61 -24 61 -63c0 -11 -1 -20 -5 -27l-52 -107h-80l72 63v7z" />
    <glyph glyph-name="quotedblbase" unicode="&#x201e;" horiz-adv-x="391" 
d="M112 0c-43 4 -65 25 -65 62s30 65 69 65c37 0 61 -24 61 -63c0 -11 -1 -20 -5 -27l-52 -107h-80l72 63v7zM279 0c-43 4 -65 25 -65 62s30 65 69 65c37 0 61 -24 61 -63c0 -11 -1 -20 -5 -27l-52 -107h-80l72 63v7z" />
    <glyph glyph-name="quotedblright" unicode="&#x201d;" horiz-adv-x="391" 
d="M278 598c-43 4 -65 24 -65 61s30 66 69 66c37 0 61 -25 61 -64c0 -11 -1 -20 -5 -27l-53 -106h-79l72 63v7zM111 598c-43 4 -65 24 -65 61s30 66 69 66c37 0 61 -25 61 -64c0 -11 -1 -20 -5 -27l-52 -106h-80l72 63v7z" />
    <glyph glyph-name="guillemotright" unicode="&#xbb;" horiz-adv-x="472" 
d="M39 131l99 101l-99 106h104l97 -106l-97 -101h-104zM228 131l100 101l-100 106h104l98 -106l-98 -101h-104z" />
    <glyph glyph-name="ellipsis" unicode="&#x2026;" horiz-adv-x="1000" 
d="M99 54c0 37 30 68 67 68s68 -31 68 -68c0 -38 -31 -68 -68 -68s-67 30 -67 68zM432 54c0 37 30 68 67 68s68 -31 68 -68c0 -38 -31 -68 -68 -68s-67 30 -67 68zM766 54c0 37 30 68 67 68s68 -31 68 -68c0 -38 -31 -68 -68 -68s-67 30 -67 68z" />
    <glyph glyph-name="perthousand" unicode="&#x2030;" horiz-adv-x="1218" 
d="M511 159c0 -55 44 -98 97 -98s96 43 96 98s-43 99 -96 99c-54 0 -97 -44 -97 -99zM160 -14l366 667h-184c24 -29 35 -61 35 -101c0 -96 -76 -172 -172 -172c-95 0 -173 77 -173 172c0 62 33 120 87 150c41 23 94 23 162 23h371l-403 -739h-89zM916 159
c0 -55 44 -98 97 -98s96 43 96 98s-43 99 -96 99c-54 0 -97 -44 -97 -99zM108 552c0 -55 44 -99 97 -99s96 44 96 99s-43 98 -96 98c-54 0 -97 -43 -97 -98zM436 159c0 96 76 173 172 173s173 -77 173 -173s-78 -172 -173 -172s-172 77 -172 172zM841 159
c0 96 76 173 172 173s173 -77 173 -173s-78 -172 -173 -172s-172 77 -172 172z" />
    <glyph glyph-name="questiondown" unicode="&#xbf;" horiz-adv-x="410" 
d="M154 540c20 6 40 9 59 9c87 0 145 -58 145 -138c0 -60 -37 -111 -104 -135c-81 -29 -130 -38 -130 -109c0 -55 37 -93 87 -93c37 0 69 20 98 60l80 -52c-50 -67 -103 -98 -169 -98c-109 0 -189 74 -189 182c0 47 14 87 41 119c31 37 73 47 124 64c45 15 67 34 67 64
c0 28 -17 47 -41 47c-9 0 -20 -3 -33 -8zM281 658c0 -37 -29 -67 -66 -67s-67 30 -67 67s30 67 67 67s66 -29 66 -67z" />
    <glyph glyph-name="grave" unicode="`" horiz-adv-x="500" 
d="M314 537h-49l-139 132h90z" />
    <glyph glyph-name="acute" unicode="&#xb4;" horiz-adv-x="500" 
d="M182 538l96 132h100l-140 -132h-56z" />
    <glyph glyph-name="circumflex" unicode="&#x2c6;" horiz-adv-x="500" 
d="M106 538l97 132h94l97 -132h-56l-88 81l-88 -81h-56z" />
    <glyph glyph-name="tilde" unicode="&#x2dc;" horiz-adv-x="500" 
d="M388 655c-11 -64 -43 -97 -93 -97c-11 0 -22 1 -33 4l-49 15c-6 2 -12 2 -19 2c-17 0 -33 -11 -41 -32h-42c16 63 49 95 98 95c9 0 17 -1 24 -3l60 -16c5 -1 11 -2 16 -2c20 0 33 12 37 34h42z" />
    <glyph glyph-name="macron" unicode="&#xaf;" horiz-adv-x="500" 
d="M123 564v65h254v-65h-254z" />
    <glyph glyph-name="breve" unicode="&#x2d8;" horiz-adv-x="500" 
d="M108 666h53c7 -42 34 -60 89 -60s83 18 89 60h53c-9 -87 -53 -126 -142 -126s-133 39 -142 126z" />
    <glyph glyph-name="dotaccent" unicode="&#x2d9;" horiz-adv-x="500" 
d="M195 602c0 30 25 56 55 56s56 -26 56 -56c0 -32 -24 -55 -56 -55s-55 23 -55 55z" />
    <glyph glyph-name="dieresis" unicode="&#xa8;" horiz-adv-x="500" 
d="M109 602c0 28 23 51 51 51s51 -23 51 -51c0 -30 -22 -51 -51 -51s-51 21 -51 51zM289 602c0 28 23 51 51 51s51 -23 51 -51c0 -30 -22 -51 -51 -51s-51 21 -51 51z" />
    <glyph glyph-name="ring" unicode="&#x2da;" horiz-adv-x="500" 
d="M151 633c0 55 44 99 99 99s100 -44 100 -99c0 -56 -45 -100 -100 -100s-99 44 -99 100zM202 632c0 -26 22 -47 48 -47c27 0 48 21 48 47c0 28 -21 48 -48 48s-48 -20 -48 -48z" />
    <glyph glyph-name="cedilla" unicode="&#xb8;" horiz-adv-x="500" 
d="M131 -189v45c54 -13 94 -18 119 -18c33 0 52 13 52 36c0 27 -21 39 -62 39c-8 0 -16 0 -25 -1v88h36v-45h14c67 0 103 -28 103 -77c0 -57 -39 -86 -117 -86c-30 0 -71 6 -120 19z" />
    <glyph glyph-name="hungarumlaut" unicode="&#x2dd;" horiz-adv-x="500" 
d="M153 538l63 132h84l-108 -132h-39zM279 538l77 132h88l-121 -132h-44z" />
    <glyph glyph-name="ogonek" unicode="&#x2db;" horiz-adv-x="500" 
d="M288 0c-42 -36 -64 -66 -64 -100c0 -28 13 -34 45 -34h39v-64h-40c-70 0 -106 25 -106 75c0 42 30 78 87 123h39z" />
    <glyph glyph-name="caron" unicode="&#x2c7;" horiz-adv-x="500" 
d="M106 669h56l88 -81l88 81h56l-97 -132h-94z" />
    <glyph glyph-name="emdash" unicode="&#x2014;" horiz-adv-x="1000" 
d="M0 266h1000v-62h-1000v62z" />
    <glyph glyph-name="AE" unicode="&#xc6;" horiz-adv-x="828" 
d="M450 0v201h-230l-130 -201h-122l442 711h381v-100h-240v-176h225v-97h-225v-236h246v-102h-347zM280 301h170v301z" />
    <glyph glyph-name="ordfeminine" unicode="&#xaa;" horiz-adv-x="465" 
d="M212 655c-64 0 -116 -46 -116 -113c0 -60 47 -103 113 -103c69 0 115 43 115 107c0 63 -49 109 -112 109zM366 458c-33 -56 -88 -85 -157 -85c-110 0 -186 73 -186 173c0 97 81 174 192 174c52 0 95 -16 129 -48c30 -28 43 -62 57 -100l68 -191h-75z" />
    <glyph glyph-name="Lslash" unicode="&#x141;" horiz-adv-x="412" 
d="M74 0v274l-69 -48v93l69 48v344h105v-300l116 83v-93l-116 -83v-212h222v-106h-327z" />
    <glyph glyph-name="Oslash" unicode="&#xd8;" horiz-adv-x="810" 
d="M143 -58l53 102c-105 92 -157 195 -157 311c0 122 61 238 163 307c60 40 128 61 201 61c54 0 100 -8 140 -27l55 102l82 -38l-56 -106c95 -67 148 -172 148 -299c0 -124 -60 -236 -156 -300c-69 -46 -146 -70 -220 -70c-38 0 -76 6 -117 20l-54 -99zM246 138l247 464
c-29 12 -58 18 -88 18c-53 0 -102 -15 -144 -44c-72 -50 -116 -132 -116 -221c0 -82 36 -160 101 -217zM572 556l-244 -458c25 -7 48 -11 68 -11c54 0 107 18 156 50c71 47 113 127 113 218c0 80 -32 150 -93 201z" />
    <glyph glyph-name="OE" unicode="&#x152;" horiz-adv-x="1050" 
d="M145 355c0 -71 27 -137 76 -187s114 -78 184 -78c68 0 136 29 184 78c49 49 76 115 76 187c0 71 -27 137 -76 187s-115 78 -184 78c-70 0 -135 -27 -184 -78c-49 -50 -76 -117 -76 -187zM663 0v105c-70 -78 -155 -116 -261 -116c-75 0 -142 20 -199 58
c-103 69 -164 184 -164 308c0 97 39 191 108 261c70 71 156 106 259 106c104 0 186 -38 257 -117v106h336v-100h-237v-176h223v-97h-223v-236h244v-102h-343z" />
    <glyph glyph-name="ordmasculine" unicode="&#xba;" horiz-adv-x="415" 
d="M22 546c0 47 19 90 54 123s82 51 131 51c50 0 97 -18 132 -51c35 -32 54 -76 54 -123c0 -46 -19 -89 -54 -122s-82 -51 -132 -51s-96 18 -131 51s-54 76 -54 122zM207 653c-64 0 -112 -46 -112 -111c0 -60 46 -103 112 -103c68 0 113 44 113 107s-48 107 -113 107z" />
    <glyph glyph-name="ae" unicode="&#xe6;" horiz-adv-x="867" 
d="M394 388c46 64 112 97 191 97c147 0 238 -96 238 -262c0 -8 -1 -17 -1 -26h-376c7 -67 62 -112 139 -112c43 0 78 13 110 43l65 -66c-55 -49 -110 -72 -175 -72c-73 0 -132 28 -191 89c-52 -62 -111 -92 -184 -92c-112 0 -185 63 -185 150c0 93 63 143 186 143h128
c-9 70 -63 115 -139 115c-36 0 -64 -9 -90 -28v92c26 16 56 23 91 23c85 0 149 -31 193 -94zM202 200c-58 0 -87 -19 -87 -62c0 -32 38 -68 94 -68c79 0 129 49 130 130h-137zM447 278h273c-8 80 -63 130 -136 130c-77 0 -127 -47 -137 -130z" />
    <glyph glyph-name="dotlessi" unicode="&#x131;" horiz-adv-x="227" 
d="M68 0v469h91v-469h-91z" />
    <glyph glyph-name="lslash" unicode="&#x142;" horiz-adv-x="241" 
d="M82 0v297l-70 -47v85l70 48v330h97v-291l70 48v-86l-70 -47v-337h-97z" />
    <glyph glyph-name="oslash" unicode="&#xf8;" 
d="M98 -51l39 79c-72 55 -108 126 -108 208c0 66 25 128 72 175s109 72 175 72c23 0 51 -5 84 -15l38 77l58 -28l-39 -80c69 -43 107 -111 107 -196c0 -146 -102 -253 -261 -253c-25 0 -47 3 -67 10l-40 -77zM180 112l136 270c-15 5 -26 7 -36 7c-88 0 -154 -63 -154 -163
c0 -50 21 -92 54 -114zM374 350l-137 -266c11 -2 22 -2 32 -2c94 0 160 67 160 149c0 54 -19 94 -55 119z" />
    <glyph glyph-name="oe" unicode="&#x153;" horiz-adv-x="923" 
d="M276 388c-86 0 -150 -65 -150 -158c0 -86 62 -147 150 -147c90 0 151 62 151 152c0 89 -65 153 -151 153zM478 88c-53 -69 -116 -100 -202 -100c-66 0 -128 25 -175 72s-72 110 -72 176c0 137 108 247 253 247c77 0 138 -30 196 -96c51 66 113 95 196 95
c148 0 238 -93 238 -257c0 -10 0 -20 -1 -31h-377c7 -67 63 -112 140 -112c43 0 78 14 110 44l65 -67c-55 -49 -110 -72 -175 -72c-79 0 -143 33 -196 101zM809 279c-8 75 -62 123 -136 123c-77 0 -127 -44 -137 -123h273z" />
    <glyph glyph-name="germandbls" unicode="&#xdf;" horiz-adv-x="572" 
d="M69 0v516c0 131 81 211 206 211c114 0 187 -74 187 -190c0 -56 -20 -101 -63 -135c85 -38 124 -97 124 -188c0 -134 -92 -228 -204 -228c-47 0 -95 21 -146 62l58 65c26 -27 54 -41 85 -41c68 0 116 58 116 141c0 89 -47 125 -145 125h-67v88h67c51 0 87 41 87 107
c0 62 -42 104 -102 104c-69 0 -102 -40 -102 -121v-516h-101z" />
    <glyph glyph-name="Aacute" unicode="&#xc1;" horiz-adv-x="571" 
d="M210 243h159l-75 224zM554 0h-104l-52 141h-226l-52 -141h-104l278 757zM226 780l96 132h100l-140 -132h-56z" />
    <glyph glyph-name="Acircumflex" unicode="&#xc2;" horiz-adv-x="571" 
d="M210 243h159l-75 224zM554 0h-104l-52 141h-226l-52 -141h-104l278 757zM150 780l97 132h94l97 -132h-56l-88 81l-88 -81h-56z" />
    <glyph glyph-name="Adieresis" unicode="&#xc4;" horiz-adv-x="571" 
d="M210 243h159l-75 224zM554 0h-104l-52 141h-226l-52 -141h-104l278 757zM153 844c0 28 23 51 51 51s51 -23 51 -51c0 -30 -22 -51 -51 -51s-51 21 -51 51zM333 844c0 28 23 51 51 51s51 -23 51 -51c0 -30 -22 -51 -51 -51s-51 21 -51 51z" />
    <glyph glyph-name="Agrave" unicode="&#xc0;" horiz-adv-x="571" 
d="M210 243h159l-75 224zM554 0h-104l-52 141h-226l-52 -141h-104l278 757zM358 779h-49l-139 132h90z" />
    <glyph glyph-name="Aring" unicode="&#xc5;" horiz-adv-x="571" 
d="M210 243h159l-75 224zM554 0h-104l-52 141h-226l-52 -141h-104l278 736zM246 863c0 -26 22 -47 48 -47c27 0 47 21 47 47c0 28 -20 48 -47 48s-48 -20 -48 -48zM194 864c0 55 45 99 100 99s99 -44 99 -99c0 -56 -44 -100 -99 -100s-100 44 -100 100z" />
    <glyph glyph-name="Atilde" unicode="&#xc3;" horiz-adv-x="571" 
d="M210 243h159l-75 224zM554 0h-104l-52 141h-226l-52 -141h-104l278 757zM432 897c-11 -64 -43 -97 -93 -97c-11 0 -22 1 -33 4l-49 15c-6 2 -12 2 -19 2c-17 0 -33 -11 -41 -32h-42c16 63 49 95 98 95c9 0 17 -1 24 -3l60 -16c5 -1 11 -2 16 -2c20 0 33 12 37 34h42z" />
    <glyph glyph-name="Ccedilla" unicode="&#xc7;" 
d="M535 8c-28 -16 -67 -21 -119 -21c-82 0 -153 20 -213 60c-102 68 -164 184 -164 308c0 97 39 191 108 261c72 73 162 109 271 109c46 0 83 -6 114 -20v-96c-34 18 -68 26 -107 26c-62 0 -118 -17 -163 -51c-74 -55 -117 -138 -117 -229c0 -155 113 -273 274 -273
c44 0 82 9 116 29v-103zM270 -189v45c54 -13 94 -18 119 -18c33 0 52 13 52 36c0 27 -21 39 -62 39c-8 0 -16 0 -25 -1v88h36v-45h14c67 0 103 -28 103 -77c0 -57 -39 -86 -117 -86c-30 0 -71 6 -120 19z" />
    <glyph glyph-name="Eacute" unicode="&#xc9;" horiz-adv-x="462" 
d="M69 0v711h342v-100h-237v-176h222v-97h-222v-236h243v-102h-348zM171 780l96 132h100l-140 -132h-56z" />
    <glyph glyph-name="Ecircumflex" unicode="&#xca;" horiz-adv-x="462" 
d="M69 0v711h342v-100h-237v-176h222v-97h-222v-236h243v-102h-348zM95 780l97 132h94l97 -132h-56l-88 81l-88 -81h-56z" />
    <glyph glyph-name="Edieresis" unicode="&#xcb;" horiz-adv-x="462" 
d="M69 0v711h342v-100h-237v-176h222v-97h-222v-236h243v-102h-348zM98 844c0 28 23 51 51 51s51 -23 51 -51c0 -30 -22 -51 -51 -51s-51 21 -51 51zM278 844c0 28 23 51 51 51s51 -23 51 -51c0 -30 -22 -51 -51 -51s-51 21 -51 51z" />
    <glyph glyph-name="Egrave" unicode="&#xc8;" horiz-adv-x="462" 
d="M69 0v711h342v-100h-237v-176h222v-97h-222v-236h243v-102h-348zM303 779h-49l-139 132h90z" />
    <glyph glyph-name="Iacute" unicode="&#xcd;" horiz-adv-x="241" 
d="M69 0v711h105v-711h-105zM53 780l96 132h100l-140 -132h-56z" />
    <glyph glyph-name="Icircumflex" unicode="&#xce;" horiz-adv-x="241" 
d="M69 0v711h105v-711h-105zM-23 780l97 132h94l97 -132h-56l-88 81l-88 -81h-56z" />
    <glyph glyph-name="Idieresis" unicode="&#xcf;" horiz-adv-x="241" 
d="M69 0v711h105v-711h-105zM-20 844c0 28 23 51 51 51s51 -23 51 -51c0 -30 -22 -51 -51 -51s-51 21 -51 51zM160 844c0 28 23 51 51 51s51 -23 51 -51c0 -30 -22 -51 -51 -51s-51 21 -51 51z" />
    <glyph glyph-name="Igrave" unicode="&#xcc;" horiz-adv-x="241" 
d="M69 0v711h105v-711h-105zM185 779h-49l-139 132h90z" />
    <glyph glyph-name="Ntilde" unicode="&#xd1;" horiz-adv-x="652" 
d="M69 0v725l409 -459v445h105v-728l-409 461v-444h-105zM464 897c-11 -64 -43 -97 -93 -97c-11 0 -22 1 -33 4l-49 15c-6 2 -12 2 -19 2c-17 0 -33 -11 -41 -32h-42c16 63 49 95 98 95c9 0 17 -1 24 -3l60 -16c5 -1 11 -2 16 -2c20 0 33 12 37 34h42z" />
    <glyph glyph-name="Oacute" unicode="&#xd3;" horiz-adv-x="810" 
d="M145 355c0 -72 27 -139 76 -188c49 -50 115 -77 184 -77c68 0 136 28 184 77c49 49 76 116 76 188c0 71 -27 138 -76 188c-50 51 -115 78 -184 78c-70 0 -134 -27 -184 -78c-49 -50 -76 -117 -76 -188zM39 355c0 97 39 191 108 261c70 71 159 109 259 109
c99 0 190 -39 259 -109c69 -69 107 -163 107 -261c0 -100 -39 -193 -107 -262c-69 -69 -162 -108 -259 -108c-98 0 -190 39 -259 108s-108 164 -108 262zM337 780l96 132h100l-140 -132h-56z" />
    <glyph glyph-name="Ocircumflex" unicode="&#xd4;" horiz-adv-x="810" 
d="M145 355c0 -72 27 -139 76 -188c49 -50 115 -77 184 -77c68 0 136 28 184 77c49 49 76 116 76 188c0 71 -27 138 -76 188c-50 51 -115 78 -184 78c-70 0 -134 -27 -184 -78c-49 -50 -76 -117 -76 -188zM39 355c0 97 39 191 108 261c70 71 159 109 259 109
c99 0 190 -39 259 -109c69 -69 107 -163 107 -261c0 -100 -39 -193 -107 -262c-69 -69 -162 -108 -259 -108c-98 0 -190 39 -259 108s-108 164 -108 262zM261 780l97 132h94l97 -132h-56l-88 81l-88 -81h-56z" />
    <glyph glyph-name="Odieresis" unicode="&#xd6;" horiz-adv-x="810" 
d="M145 355c0 -72 27 -139 76 -188c49 -50 115 -77 184 -77c68 0 136 28 184 77c49 49 76 116 76 188c0 71 -27 138 -76 188c-50 51 -115 78 -184 78c-70 0 -134 -27 -184 -78c-49 -50 -76 -117 -76 -188zM39 355c0 97 39 191 108 261c70 71 159 109 259 109
c99 0 190 -39 259 -109c69 -69 107 -163 107 -261c0 -100 -39 -193 -107 -262c-69 -69 -162 -108 -259 -108c-98 0 -190 39 -259 108s-108 164 -108 262zM264 844c0 28 23 51 51 51s51 -23 51 -51c0 -30 -22 -51 -51 -51s-51 21 -51 51zM444 844c0 28 23 51 51 51
s51 -23 51 -51c0 -30 -22 -51 -51 -51s-51 21 -51 51z" />
    <glyph glyph-name="Ograve" unicode="&#xd2;" horiz-adv-x="810" 
d="M145 355c0 -72 27 -139 76 -188c49 -50 115 -77 184 -77c68 0 136 28 184 77c49 49 76 116 76 188c0 71 -27 138 -76 188c-50 51 -115 78 -184 78c-70 0 -134 -27 -184 -78c-49 -50 -76 -117 -76 -188zM39 355c0 97 39 191 108 261c70 71 159 109 259 109
c99 0 190 -39 259 -109c69 -69 107 -163 107 -261c0 -100 -39 -193 -107 -262c-69 -69 -162 -108 -259 -108c-98 0 -190 39 -259 108s-108 164 -108 262zM469 779h-49l-139 132h90z" />
    <glyph glyph-name="Otilde" unicode="&#xd5;" horiz-adv-x="810" 
d="M145 355c0 -72 27 -139 76 -188c49 -50 115 -77 184 -77c68 0 136 28 184 77c49 49 76 116 76 188c0 71 -27 138 -76 188c-50 51 -115 78 -184 78c-70 0 -134 -27 -184 -78c-49 -50 -76 -117 -76 -188zM39 355c0 97 39 191 108 261c70 71 159 109 259 109
c99 0 190 -39 259 -109c69 -69 107 -163 107 -261c0 -100 -39 -193 -107 -262c-69 -69 -162 -108 -259 -108c-98 0 -190 39 -259 108s-108 164 -108 262zM543 897c-11 -64 -43 -97 -93 -97c-11 0 -22 1 -33 4l-49 15c-6 2 -12 2 -19 2c-17 0 -33 -11 -41 -32h-42
c16 63 49 95 98 95c9 0 17 -1 24 -3l60 -16c5 -1 11 -2 16 -2c20 0 33 12 37 34h42z" />
    <glyph glyph-name="Scaron" unicode="&#x160;" horiz-adv-x="498" 
d="M15 175l97 42c14 -84 55 -126 121 -126c73 0 120 49 120 120c0 76 -41 103 -129 134c-41 14 -80 27 -116 62s-59 89 -59 134c0 103 85 184 185 184c88 0 153 -48 184 -133l-93 -38c-12 45 -45 71 -87 71c-49 0 -85 -34 -85 -78c0 -53 42 -79 115 -107
c127 -50 190 -102 190 -222c0 -136 -99 -231 -222 -231c-111 0 -197 71 -221 188zM105 911h56l88 -81l88 81h56l-97 -132h-94z" />
    <glyph glyph-name="Uacute" unicode="&#xda;" horiz-adv-x="632" 
d="M75 261v450h105v-445c0 -124 39 -180 136 -180s136 56 136 180v445h104v-450c0 -76 -4 -133 -44 -186c-45 -58 -111 -89 -194 -89c-87 0 -152 30 -198 89c-38 49 -45 107 -45 186zM248 780l96 132h100l-140 -132h-56z" />
    <glyph glyph-name="Ucircumflex" unicode="&#xdb;" horiz-adv-x="632" 
d="M75 261v450h105v-445c0 -124 39 -180 136 -180s136 56 136 180v445h104v-450c0 -76 -4 -133 -44 -186c-45 -58 -111 -89 -194 -89c-87 0 -152 30 -198 89c-38 49 -45 107 -45 186zM172 780l97 132h94l97 -132h-56l-88 81l-88 -81h-56z" />
    <glyph glyph-name="Udieresis" unicode="&#xdc;" horiz-adv-x="632" 
d="M75 261v450h105v-445c0 -124 39 -180 136 -180s136 56 136 180v445h104v-450c0 -76 -4 -133 -44 -186c-45 -58 -111 -89 -194 -89c-87 0 -152 30 -198 89c-38 49 -45 107 -45 186zM175 844c0 28 23 51 51 51s51 -23 51 -51c0 -30 -22 -51 -51 -51s-51 21 -51 51zM355 844
c0 28 23 51 51 51s51 -23 51 -51c0 -30 -22 -51 -51 -51s-51 21 -51 51z" />
    <glyph glyph-name="Ugrave" unicode="&#xd9;" horiz-adv-x="632" 
d="M75 261v450h105v-445c0 -124 39 -180 136 -180s136 56 136 180v445h104v-450c0 -76 -4 -133 -44 -186c-45 -58 -111 -89 -194 -89c-87 0 -152 30 -198 89c-38 49 -45 107 -45 186zM380 779h-49l-139 132h90z" />
    <glyph glyph-name="Ydieresis" unicode="&#x178;" 
d="M227 0v301l-208 410h115l143 -287l142 287h116l-199 -410v-301h-109zM136 844c0 28 23 51 51 51s51 -23 51 -51c0 -30 -22 -51 -51 -51s-51 21 -51 51zM316 844c0 28 23 51 51 51s51 -23 51 -51c0 -30 -22 -51 -51 -51s-51 21 -51 51z" />
    <glyph glyph-name="Zcaron" unicode="&#x17d;" horiz-adv-x="519" 
d="M475 0h-449l308 606h-242v105h414l-311 -607h280v-104zM116 911h56l88 -81l88 81h56l-97 -132h-94z" />
    <glyph glyph-name="aacute" unicode="&#xe1;" horiz-adv-x="620" 
d="M283 390c-86 0 -155 -65 -155 -161c0 -86 62 -147 150 -147c92 0 154 61 154 152c0 90 -65 156 -149 156zM488 109c-44 -80 -117 -122 -210 -122c-146 0 -248 104 -248 248c0 138 108 248 256 248c70 0 127 -23 173 -68c40 -40 57 -89 75 -144l91 -272h-100zM213 538
l96 132h100l-140 -132h-56z" />
    <glyph glyph-name="acircumflex" unicode="&#xe2;" horiz-adv-x="620" 
d="M283 390c-86 0 -155 -65 -155 -161c0 -86 62 -147 150 -147c92 0 154 61 154 152c0 90 -65 156 -149 156zM488 109c-44 -80 -117 -122 -210 -122c-146 0 -248 104 -248 248c0 138 108 248 256 248c70 0 127 -23 173 -68c40 -40 57 -89 75 -144l91 -272h-100zM137 538
l97 132h94l97 -132h-56l-88 81l-88 -81h-56z" />
    <glyph glyph-name="adieresis" unicode="&#xe4;" horiz-adv-x="620" 
d="M283 390c-86 0 -155 -65 -155 -161c0 -86 62 -147 150 -147c92 0 154 61 154 152c0 90 -65 156 -149 156zM488 109c-44 -80 -117 -122 -210 -122c-146 0 -248 104 -248 248c0 138 108 248 256 248c70 0 127 -23 173 -68c40 -40 57 -89 75 -144l91 -272h-100zM140 602
c0 28 23 51 51 51s51 -23 51 -51c0 -30 -22 -51 -51 -51s-51 21 -51 51zM320 602c0 28 23 51 51 51s51 -23 51 -51c0 -30 -22 -51 -51 -51s-51 21 -51 51z" />
    <glyph glyph-name="agrave" unicode="&#xe0;" horiz-adv-x="620" 
d="M283 390c-86 0 -155 -65 -155 -161c0 -86 62 -147 150 -147c92 0 154 61 154 152c0 90 -65 156 -149 156zM488 109c-44 -80 -117 -122 -210 -122c-146 0 -248 104 -248 248c0 138 108 248 256 248c70 0 127 -23 173 -68c40 -40 57 -89 75 -144l91 -272h-100zM345 537h-49
l-139 132h90z" />
    <glyph glyph-name="aring" unicode="&#xe5;" horiz-adv-x="620" 
d="M243 614c0 -26 22 -47 48 -47c27 0 47 21 47 47c0 28 -20 48 -47 48s-48 -20 -48 -48zM192 615c0 55 44 99 99 99s99 -44 99 -99c0 -56 -44 -100 -99 -100s-99 44 -99 100zM283 390c-86 0 -155 -65 -155 -161c0 -86 62 -147 150 -147c92 0 154 61 154 152
c0 90 -65 156 -149 156zM488 109c-44 -80 -117 -122 -210 -122c-146 0 -248 104 -248 248c0 138 108 248 256 248c70 0 127 -23 173 -68c40 -40 57 -89 75 -144l91 -272h-100z" />
    <glyph glyph-name="atilde" unicode="&#xe3;" horiz-adv-x="620" 
d="M283 390c-86 0 -155 -65 -155 -161c0 -86 62 -147 150 -147c92 0 154 61 154 152c0 90 -65 156 -149 156zM488 109c-44 -80 -117 -122 -210 -122c-146 0 -248 104 -248 248c0 138 108 248 256 248c70 0 127 -23 173 -68c40 -40 57 -89 75 -144l91 -272h-100zM419 655
c-11 -64 -43 -97 -93 -97c-11 0 -22 1 -33 4l-49 15c-6 2 -12 2 -19 2c-17 0 -33 -11 -41 -32h-42c16 63 49 95 98 95c9 0 17 -1 24 -3l60 -16c5 -1 11 -2 16 -2c20 0 33 12 37 34h42z" />
    <glyph glyph-name="ccedilla" unicode="&#xe7;" horiz-adv-x="481" 
d="M452 60c-55 -49 -111 -73 -176 -73c-67 0 -128 26 -175 73s-72 109 -72 175s25 128 72 175s109 73 175 73c64 0 121 -24 176 -73l-67 -68c-33 31 -67 45 -109 45c-86 0 -150 -65 -150 -152c0 -93 62 -153 150 -153c43 0 78 14 110 44zM151 -189v45c54 -13 94 -18 119 -18
c33 0 52 13 52 36c0 27 -21 39 -62 39c-8 0 -16 0 -25 -1v88h36v-45h14c67 0 103 -28 103 -77c0 -57 -39 -86 -117 -86c-30 0 -71 6 -120 19z" />
    <glyph glyph-name="eacute" unicode="&#xe9;" 
d="M130 279h282c-13 79 -63 123 -136 123c-68 0 -129 -47 -146 -123zM452 60c-55 -49 -111 -73 -176 -73c-67 0 -128 26 -175 73s-72 109 -72 175c0 137 108 248 252 248c140 0 234 -100 234 -265c0 -8 -1 -15 -1 -23h-379c12 -69 65 -113 141 -113c43 0 78 14 110 44z
M209 538l96 132h100l-140 -132h-56z" />
    <glyph glyph-name="ecircumflex" unicode="&#xea;" 
d="M130 279h282c-13 79 -63 123 -136 123c-68 0 -129 -47 -146 -123zM452 60c-55 -49 -111 -73 -176 -73c-67 0 -128 26 -175 73s-72 109 -72 175c0 137 108 248 252 248c140 0 234 -100 234 -265c0 -8 -1 -15 -1 -23h-379c12 -69 65 -113 141 -113c43 0 78 14 110 44z
M133 538l97 132h94l97 -132h-56l-88 81l-88 -81h-56z" />
    <glyph glyph-name="edieresis" unicode="&#xeb;" 
d="M130 279h282c-13 79 -63 123 -136 123c-68 0 -129 -47 -146 -123zM452 60c-55 -49 -111 -73 -176 -73c-67 0 -128 26 -175 73s-72 109 -72 175c0 137 108 248 252 248c140 0 234 -100 234 -265c0 -8 -1 -15 -1 -23h-379c12 -69 65 -113 141 -113c43 0 78 14 110 44z
M136 602c0 28 23 51 51 51s51 -23 51 -51c0 -30 -22 -51 -51 -51s-51 21 -51 51zM316 602c0 28 23 51 51 51s51 -23 51 -51c0 -30 -22 -51 -51 -51s-51 21 -51 51z" />
    <glyph glyph-name="egrave" unicode="&#xe8;" 
d="M130 279h282c-13 79 -63 123 -136 123c-68 0 -129 -47 -146 -123zM452 60c-55 -49 -111 -73 -176 -73c-67 0 -128 26 -175 73s-72 109 -72 175c0 137 108 248 252 248c140 0 234 -100 234 -265c0 -8 -1 -15 -1 -23h-379c12 -69 65 -113 141 -113c43 0 78 14 110 44z
M341 537h-49l-139 132h90z" />
    <glyph glyph-name="iacute" unicode="&#xed;" horiz-adv-x="227" 
d="M68 0v469h91v-469h-91zM46 538l96 132h100l-140 -132h-56z" />
    <glyph glyph-name="icircumflex" unicode="&#xee;" horiz-adv-x="227" 
d="M68 0v469h91v-469h-91zM-30 538l97 132h94l97 -132h-56l-88 81l-88 -81h-56z" />
    <glyph glyph-name="idieresis" unicode="&#xef;" horiz-adv-x="227" 
d="M68 0v469h91v-469h-91zM-27 602c0 28 23 51 51 51s51 -23 51 -51c0 -30 -22 -51 -51 -51s-51 21 -51 51zM153 602c0 28 23 51 51 51s51 -23 51 -51c0 -30 -22 -51 -51 -51s-51 21 -51 51z" />
    <glyph glyph-name="igrave" unicode="&#xec;" horiz-adv-x="227" 
d="M68 0v469h91v-469h-91zM178 537h-49l-139 132h90z" />
    <glyph glyph-name="ntilde" unicode="&#xf1;" horiz-adv-x="532" 
d="M153 0h-96v258c0 149 71 225 208 225c138 0 208 -75 208 -225v-258h-96v257c0 86 -40 131 -113 131c-72 0 -111 -45 -111 -131v-257zM404 655c-11 -64 -43 -97 -93 -97c-11 0 -22 1 -33 4l-49 15c-6 2 -12 2 -19 2c-17 0 -33 -11 -41 -32h-42c16 63 49 95 98 95
c9 0 17 -1 24 -3l60 -16c5 -1 11 -2 16 -2c20 0 33 12 37 34h42z" />
    <glyph glyph-name="oacute" unicode="&#xf3;" 
d="M29 235c0 66 25 128 72 175s109 73 175 73s129 -26 176 -73c47 -46 72 -109 72 -175s-25 -128 -72 -175s-109 -73 -176 -73s-128 26 -175 73s-72 109 -72 175zM276 387c-86 0 -150 -65 -150 -158c0 -86 62 -147 150 -147c90 0 151 63 151 153c0 89 -65 152 -151 152z
M209 538l96 132h100l-140 -132h-56z" />
    <glyph glyph-name="ocircumflex" unicode="&#xf4;" 
d="M29 235c0 66 25 128 72 175s109 73 175 73s129 -26 176 -73c47 -46 72 -109 72 -175s-25 -128 -72 -175s-109 -73 -176 -73s-128 26 -175 73s-72 109 -72 175zM276 387c-86 0 -150 -65 -150 -158c0 -86 62 -147 150 -147c90 0 151 63 151 153c0 89 -65 152 -151 152z
M133 538l97 132h94l97 -132h-56l-88 81l-88 -81h-56z" />
    <glyph glyph-name="odieresis" unicode="&#xf6;" 
d="M29 235c0 66 25 128 72 175s109 73 175 73s129 -26 176 -73c47 -46 72 -109 72 -175s-25 -128 -72 -175s-109 -73 -176 -73s-128 26 -175 73s-72 109 -72 175zM276 387c-86 0 -150 -65 -150 -158c0 -86 62 -147 150 -147c90 0 151 63 151 153c0 89 -65 152 -151 152z
M136 602c0 28 23 51 51 51s51 -23 51 -51c0 -30 -22 -51 -51 -51s-51 21 -51 51zM316 602c0 28 23 51 51 51s51 -23 51 -51c0 -30 -22 -51 -51 -51s-51 21 -51 51z" />
    <glyph glyph-name="ograve" unicode="&#xf2;" 
d="M29 235c0 66 25 128 72 175s109 73 175 73s129 -26 176 -73c47 -46 72 -109 72 -175s-25 -128 -72 -175s-109 -73 -176 -73s-128 26 -175 73s-72 109 -72 175zM276 387c-86 0 -150 -65 -150 -158c0 -86 62 -147 150 -147c90 0 151 63 151 153c0 89 -65 152 -151 152z
M341 537h-49l-139 132h90z" />
    <glyph glyph-name="otilde" unicode="&#xf5;" 
d="M29 235c0 66 25 128 72 175s109 73 175 73s129 -26 176 -73c47 -46 72 -109 72 -175s-25 -128 -72 -175s-109 -73 -176 -73s-128 26 -175 73s-72 109 -72 175zM276 387c-86 0 -150 -65 -150 -158c0 -86 62 -147 150 -147c90 0 151 63 151 153c0 89 -65 152 -151 152z
M415 655c-11 -64 -43 -97 -93 -97c-11 0 -22 1 -33 4l-49 15c-6 2 -12 2 -19 2c-17 0 -33 -11 -41 -32h-42c16 63 49 95 98 95c9 0 17 -1 24 -3l60 -16c5 -1 11 -2 16 -2c20 0 33 12 37 34h42z" />
    <glyph glyph-name="scaron" unicode="&#x161;" horiz-adv-x="389" 
d="M6 125l80 40c25 -66 55 -97 104 -97c47 0 77 28 77 69c0 45 -30 63 -89 84c-83 30 -125 69 -125 136c0 72 54 126 134 126c57 0 98 -29 126 -86l-67 -35c-20 36 -36 52 -65 52c-28 0 -49 -22 -49 -49c0 -31 21 -44 62 -58c46 -16 83 -26 107 -45c36 -30 53 -66 53 -115
c0 -94 -67 -160 -170 -160c-86 0 -149 48 -178 138zM51 669h56l88 -81l88 81h56l-97 -132h-94z" />
    <glyph glyph-name="uacute" unicode="&#xfa;" horiz-adv-x="532" 
d="M153 470v-257c0 -86 39 -131 111 -131c73 0 113 45 113 131v257h96v-259c0 -58 -2 -104 -37 -149c-40 -52 -95 -74 -171 -74c-140 0 -208 74 -208 223v259h96zM198 538l96 132h100l-140 -132h-56z" />
    <glyph glyph-name="ucircumflex" unicode="&#xfb;" horiz-adv-x="532" 
d="M153 470v-257c0 -86 39 -131 111 -131c73 0 113 45 113 131v257h96v-259c0 -58 -2 -104 -37 -149c-40 -52 -95 -74 -171 -74c-140 0 -208 74 -208 223v259h96zM122 538l97 132h94l97 -132h-56l-88 81l-88 -81h-56z" />
    <glyph glyph-name="udieresis" unicode="&#xfc;" horiz-adv-x="532" 
d="M153 470v-257c0 -86 39 -131 111 -131c73 0 113 45 113 131v257h96v-259c0 -58 -2 -104 -37 -149c-40 -52 -95 -74 -171 -74c-140 0 -208 74 -208 223v259h96zM125 602c0 28 23 51 51 51s51 -23 51 -51c0 -30 -22 -51 -51 -51s-51 21 -51 51zM305 602c0 28 23 51 51 51
s51 -23 51 -51c0 -30 -22 -51 -51 -51s-51 21 -51 51z" />
    <glyph glyph-name="ugrave" unicode="&#xf9;" horiz-adv-x="532" 
d="M153 470v-257c0 -86 39 -131 111 -131c73 0 113 45 113 131v257h96v-259c0 -58 -2 -104 -37 -149c-40 -52 -95 -74 -171 -74c-140 0 -208 74 -208 223v259h96zM330 537h-49l-139 132h90z" />
    <glyph glyph-name="ydieresis" unicode="&#xff;" horiz-adv-x="532" 
d="M382 41c-40 -36 -82 -54 -130 -54c-113 0 -193 81 -193 208v275h96v-257c0 -86 40 -131 112 -131c76 0 110 43 110 130v258h96v-396c0 -98 -4 -169 -57 -230c-51 -59 -124 -90 -216 -90c-83 0 -160 40 -214 114l73 60c39 -57 86 -82 154 -82c103 0 169 63 169 171v24z
M125 602c0 28 23 51 51 51s51 -23 51 -51c0 -30 -22 -51 -51 -51s-51 21 -51 51zM305 602c0 28 23 51 51 51s51 -23 51 -51c0 -30 -22 -51 -51 -51s-51 21 -51 51z" />
    <glyph glyph-name="zcaron" unicode="&#x17e;" horiz-adv-x="407" 
d="M388 0h-373l219 380h-174v90h328l-213 -379h213v-91zM60 669h56l88 -81l88 81h56l-97 -132h-94z" />
    <glyph glyph-name="trademark" unicode="&#x2122;" horiz-adv-x="833" 
d="M339 712v-39h-84v-224h-53v224h-84v39h221zM470 712l74 -188l69 188h73v-263h-48v217l-81 -217h-27l-85 217v-217h-48v263h73z" />
    <glyph glyph-name="copyright" unicode="&#xa9;" horiz-adv-x="833" 
d="M416 715c98 0 187 -36 256 -105c67 -67 105 -158 105 -255c0 -98 -37 -186 -104 -252c-71 -69 -162 -108 -257 -108s-184 38 -253 107s-106 158 -106 253s37 185 107 256c67 67 155 104 252 104zM729 355c0 85 -32 163 -90 221c-60 60 -137 92 -222 92s-161 -32 -219 -90
c-61 -61 -94 -141 -94 -223s33 -160 93 -220s137 -92 220 -92c82 0 160 33 222 93c58 57 90 133 90 219zM514 443c-8 50 -44 78 -100 78c-66 0 -110 -59 -110 -166c0 -104 44 -162 115 -162c53 0 91 32 100 86h71c-6 -85 -76 -143 -174 -143c-117 0 -190 81 -190 222
c0 132 79 217 193 217c93 0 160 -54 167 -132h-72z" />
    <glyph glyph-name="logicalnot" unicode="&#xac;" horiz-adv-x="833" 
d="M709 420v-245h-67v177h-518v68h585z" />
    <glyph glyph-name="registered" unicode="&#xae;" horiz-adv-x="833" 
d="M416 715c98 0 188 -37 257 -107c66 -67 104 -157 104 -253c0 -99 -37 -187 -105 -253c-71 -69 -162 -107 -256 -107c-96 0 -185 38 -254 108c-68 69 -105 157 -105 252s39 187 109 258c66 67 153 102 250 102zM729 352c0 87 -31 165 -89 223c-60 61 -137 93 -223 93
c-84 0 -161 -31 -218 -89c-61 -62 -95 -142 -95 -224s33 -159 92 -219s138 -93 218 -93c85 0 162 32 224 92c59 57 91 134 91 217zM426 566c114 0 170 -38 170 -112c0 -58 -34 -98 -93 -110l91 -186h-86l-83 174h-76v-174h-77v408h154zM412 516h-63v-135h65
c70 0 103 17 103 65c0 50 -33 70 -105 70z" />
    <glyph glyph-name="minus" unicode="&#x2212;" horiz-adv-x="833" 
d="M709 333v-69h-585v69h585z" />
    <glyph glyph-name="Eth" unicode="&#xd0;" horiz-adv-x="581" 
d="M182 93h17c146 0 249 113 249 262c0 157 -99 262 -251 262h-15v-191h148v-80h-148v-253zM76 0v346h-74v80h74v285h103c95 0 167 -17 237 -72c85 -66 131 -165 131 -279c0 -116 -42 -212 -125 -285c-75 -65 -148 -75 -243 -75h-103z" />
    <glyph glyph-name="Thorn" unicode="&#xde;" horiz-adv-x="595" 
d="M69 711h105v-164c40 34 89 51 141 51c64 0 125 -25 171 -71s71 -107 71 -172c0 -135 -106 -243 -247 -243c-58 0 -105 17 -136 52v-164h-105v711zM316 509c-89 0 -153 -62 -153 -154c0 -90 57 -149 146 -149c88 0 150 65 150 149c0 90 -67 154 -143 154z" />
    <glyph glyph-name="Yacute" unicode="&#xdd;" 
d="M227 0v301l-208 410h115l143 -287l142 287h116l-199 -410v-301h-109zM209 780l96 132h100l-140 -132h-56z" />
    <glyph glyph-name="brokenbar" unicode="&#xa6;" horiz-adv-x="500" 
d="M287 699v-370h-73v370h73zM287 199v-370h-73v370h73z" />
    <glyph glyph-name="degree" unicode="&#xb0;" horiz-adv-x="329" 
d="M165 711c77 0 140 -63 140 -141c0 -76 -61 -140 -141 -140c-79 0 -140 62 -140 140c0 79 64 141 141 141zM259 571c0 52 -41 94 -94 94c-52 0 -95 -41 -95 -94s42 -96 95 -96c54 0 94 44 94 96z" />
    <glyph glyph-name="divide" unicode="&#xf7;" horiz-adv-x="833" 
d="M417 540c33 0 61 -28 61 -62c0 -33 -27 -61 -61 -61s-61 27 -61 61s28 62 61 62zM709 332v-68h-585v68h585zM417 179c33 0 61 -27 61 -61c0 -33 -27 -61 -61 -61c-35 0 -61 27 -61 61s28 61 61 61z" />
    <glyph glyph-name="eth" unicode="&#xf0;" 
d="M276 387c-86 0 -150 -65 -150 -157c0 -87 62 -148 150 -148c90 0 151 63 151 153c0 89 -65 152 -151 152zM346 471l-70 95l-148 -49l-20 58l131 44l-67 94h100l49 -67l119 38l20 -58l-102 -33l66 -91c66 -91 100 -173 100 -258c0 -149 -109 -257 -248 -257
c-67 0 -128 26 -175 73s-72 109 -72 175s25 128 72 175s109 73 175 73c25 0 48 -3 70 -12z" />
    <glyph glyph-name="mu" unicode="&#xb5;" horiz-adv-x="562" 
d="M188 523l-63 -293c-5 -22 -7 -43 -7 -65c0 -65 36 -101 98 -101c90 0 133 62 162 197l56 262h87l-76 -357c-6 -29 -11 -51 -11 -65c0 -24 10 -33 35 -33c5 0 10 0 16 1l-15 -70c-19 -4 -36 -5 -53 -5c-42 0 -61 18 -73 63c-29 -43 -73 -64 -132 -64c-53 0 -91 17 -125 57
l-54 -259h-88l155 732h88z" />
    <glyph glyph-name="multiply" unicode="&#xd7;" horiz-adv-x="833" 
d="M420 346l229 229l48 -48l-229 -229l229 -229l-48 -47l-229 228l-229 -228l-48 47l229 229l-229 229l48 48z" />
    <glyph glyph-name="onehalf" unicode="&#xbd;" horiz-adv-x="726" 
d="M79 312v344h-63v54h130v-398h-67zM543 725l-411 -739h-89l412 739h88zM667 0h-254l162 198c24 30 42 52 42 81c0 41 -31 68 -69 68c-39 0 -71 -25 -79 -66h-62c5 71 65 117 136 117c79 0 137 -51 137 -122c0 -43 -21 -70 -51 -106l-98 -117h136v-53z" />
    <glyph glyph-name="onequarter" unicode="&#xbc;" horiz-adv-x="726" 
d="M79 312v344h-63v54h130v-398h-67zM543 725l-411 -739h-89l412 739h88zM601 0v70h-177l-34 52l273 284v-285h37v-51h-37v-70h-62zM456 122h145v154z" />
    <glyph glyph-name="onesuperior" unicode="&#xb9;" horiz-adv-x="220" 
d="M83 284v369h-66v58h135v-427h-69z" />
    <glyph glyph-name="plusminus" unicode="&#xb1;" horiz-adv-x="833" 
d="M451 582v-166h258v-68h-258v-166h-69v166h-258v68h258v166h69zM709 83v-69h-585v69h585z" />
    <glyph glyph-name="thorn" unicode="&#xfe;" horiz-adv-x="574" 
d="M149 -227h-96v940h96v-290c46 39 99 59 158 59c65 0 121 -24 168 -71s73 -110 73 -176c0 -135 -102 -243 -244 -243c-64 0 -116 21 -155 61v-280zM303 388c-90 0 -152 -62 -152 -147c0 -94 64 -159 150 -159s150 64 150 153c0 90 -62 153 -148 153z" />
    <glyph glyph-name="threequarters" unicode="&#xbe;" horiz-adv-x="864" 
d="M81 428c4 -43 41 -73 88 -73c48 0 86 35 86 79c0 49 -38 78 -109 78h-20v49h12c60 0 90 20 90 56c0 30 -26 54 -59 54c-29 0 -51 -14 -58 -39h-58c10 52 57 86 116 86c66 0 118 -44 118 -99c0 -32 -17 -59 -51 -79c51 -20 82 -58 82 -110c0 -33 -16 -65 -43 -88
c-29 -25 -66 -37 -106 -37c-81 0 -145 51 -148 123h60zM681 725l-411 -739h-89l412 739h88zM739 0v70h-177l-34 52l273 284v-285h37v-51h-37v-70h-62zM594 122h145v154z" />
    <glyph glyph-name="threesuperior" unicode="&#xb3;" horiz-adv-x="365" 
d="M84 409c5 -47 44 -79 93 -79c50 0 90 37 90 84c0 53 -40 85 -114 85c-6 0 -14 0 -21 -1v53h13c62 0 94 21 94 60c0 32 -27 58 -62 58c-30 0 -53 -15 -61 -42h-61c11 56 60 92 122 92c69 0 123 -47 123 -106c0 -34 -18 -63 -52 -84c53 -22 85 -63 85 -118
c0 -36 -16 -70 -45 -95c-31 -27 -70 -40 -111 -40c-85 0 -152 55 -155 133h62z" />
    <glyph glyph-name="twosuperior" unicode="&#xb2;" horiz-adv-x="365" 
d="M304 284h-266l169 212c26 32 44 56 44 87c0 44 -33 72 -72 72c-40 0 -74 -26 -83 -70h-64c5 76 68 126 142 126c83 0 143 -55 143 -132c0 -45 -22 -75 -53 -113l-102 -126h142v-56z" />
    <glyph glyph-name="yacute" unicode="&#xfd;" horiz-adv-x="532" 
d="M382 41c-40 -36 -82 -54 -130 -54c-113 0 -193 81 -193 208v275h96v-257c0 -86 40 -131 112 -131c76 0 110 43 110 130v258h96v-396c0 -98 -4 -169 -57 -230c-51 -59 -124 -90 -216 -90c-83 0 -160 40 -214 114l73 60c39 -57 86 -82 154 -82c103 0 169 63 169 171v24z
M198 538l96 132h100l-140 -132h-56z" />
    </font>
</defs>
</svg>
